<svg xmlns="http://www.w3.org/2000/svg" viewBox="0 0 800 800" width="32" height="32">
	<defs>
		<clipPath clipPathUnits="userSpaceOnUse" id="cp1">
			<path d="M0 0L800 0L800 800L0 800Z" />
		</clipPath>
	</defs>
	<style>
		tspan { white-space:pre }
		.shp0 { fill: #ffffff } 
	</style>
	<g id="Page 1" clip-path="url(#cp1)">
		<path id="Path 1" fill-rule="evenodd" class="shp0" d="M800 400C800 506.84 758.39 607.29 682.85 682.85C607.29 758.39 506.84 800 400 800C293.16 800 192.71 758.39 117.15 682.85C41.61 607.29 0 506.84 0 400C0 293.16 41.61 192.71 117.15 117.15C192.71 41.61 293.16 0 400 0C506.84 0 607.29 41.61 682.85 117.15C758.39 192.71 800 293.16 800 400ZM753.13 400C753.13 205.29 594.71 46.88 400 46.88C205.29 46.88 46.88 205.29 46.88 400C46.88 594.71 205.29 753.13 400 753.13C594.71 753.13 753.13 594.71 753.13 400Z" />
		<path id="Path 2" fill-rule="evenodd" class="shp0" d="M477.81 360.83L477.81 663.32C477.81 676.27 467.31 686.76 454.37 686.76L345.63 686.76C332.69 686.76 322.19 676.27 322.19 663.32L322.19 441.5C322.19 384.1 368.9 337.39 426.3 337.39L454.37 337.39C467.31 337.39 477.81 347.88 477.81 360.83ZM430.93 384.27L426.3 384.27C394.74 384.27 369.07 409.94 369.07 441.5L369.07 639.89L430.93 639.89L430.93 384.27ZM488.51 201.75C488.51 250.55 448.8 290.26 400 290.26C351.2 290.26 311.49 250.55 311.49 201.75C311.49 152.95 351.2 113.24 400 113.24C448.8 113.24 488.51 152.95 488.51 201.75ZM441.63 201.75C441.63 178.79 422.96 160.11 400 160.11C377.04 160.11 358.37 178.79 358.37 201.75C358.37 224.71 377.04 243.39 400 243.39C422.96 243.39 441.63 224.71 441.63 201.75Z" />
	</g>
</svg>