<svg xmlns="http://www.w3.org/2000/svg" viewBox="0 0 800 800" width="48" height="48">
	<defs>
		<clipPath clipPathUnits="userSpaceOnUse" id="cp1">
			<path d="M0 0L800 0L800 800L0 800L0 0Z" />
		</clipPath>
	</defs>
	<style>
		tspan { white-space:pre }
		.shp0 { fill: #ffffff } 
	</style>
	<g id="Clip-Path: Page 1" clip-path="url(#cp1)">
		<g id="Page 1">
			<path id="Path 1" fill-rule="evenodd" class="shp0" d="M800 457.03L800 752.34C800 778.83 757.5 787.67 743.53 790.58C713.87 796.74 673.69 800 627.34 800C581 800 540.82 796.74 511.16 790.58C497.19 787.67 454.69 778.83 454.69 752.34L454.69 734.38L42.97 734.38C18.77 734.38 0 714.63 0 697.66L0 49.22C0 20.7 18.07 0 42.97 0L530.47 0C554.16 0 573.44 19.28 573.44 42.97L573.44 411.03C590.16 409.94 608.21 409.38 627.34 409.38C673.69 409.38 713.87 412.64 743.53 418.8C757.5 421.7 800 430.54 800 457.03ZM776.56 559.02C764.3 564.76 750.43 567.65 743.53 569.09C713.87 575.25 673.69 578.52 627.34 578.52C581 578.52 540.82 575.25 511.16 569.09C504.26 567.65 490.39 564.76 478.13 559.02L478.13 604.69C478.14 604.69 482.34 613.56 519.85 620.76C547.62 626.09 584.8 628.91 627.34 628.91C669.89 628.91 707.06 626.09 734.84 620.76C771.44 613.73 776.32 605.12 776.56 604.61L776.56 559.02ZM454.69 710.94L454.69 671.88L111.72 671.88C93.82 671.88 78.13 657.63 78.13 641.41L78.13 391.41C78.13 370.48 92.57 354.69 111.72 354.69L491.41 354.69C509.93 354.69 525 369.76 525 388.28L525 416.27C532.8 415.01 541.14 413.91 550 412.98L550 315.62L464.06 315.62C457.59 315.62 452.34 310.37 452.34 303.91C452.34 297.44 457.59 292.19 464.06 292.19L550 292.19L550 42.97C550 32.2 541.24 23.44 530.47 23.44L42.97 23.44C31.1 23.44 23.44 33.56 23.44 49.22L23.44 292.19L409.38 292.19C415.84 292.19 421.09 297.44 421.09 303.91C421.09 310.37 415.84 315.62 409.38 315.62L23.44 315.62L23.44 697.66C23.44 701.62 31.68 710.94 42.97 710.94L454.69 710.94ZM501.56 388.28C501.56 382.68 497 378.12 491.41 378.12L313.28 378.12L313.28 501.56L454.69 501.56L454.69 457.03C454.69 435.18 483.59 425.35 501.56 420.94L501.56 388.28ZM289.84 378.12L111.72 378.12C105.65 378.12 101.56 383.46 101.56 391.41L101.56 501.56L289.84 501.56L289.84 378.12ZM776.56 485.2C764.3 490.94 750.43 493.83 743.53 495.26C713.87 501.43 673.69 504.69 627.34 504.69C581 504.69 540.82 501.43 511.16 495.26C504.26 493.82 490.39 490.93 478.13 485.19L478.13 530.86C478.14 530.86 482.34 539.73 519.85 546.93C547.62 552.26 584.8 555.08 627.34 555.08C669.89 555.08 707.06 552.26 734.84 546.93C771.44 539.9 776.32 531.29 776.56 530.79L776.56 485.2ZM627.34 432.81C584.8 432.81 547.62 435.63 519.85 440.97C484.5 447.75 478.74 456.02 478.17 457.03C478.74 458.04 484.5 466.31 519.85 473.1C547.62 478.43 584.8 481.25 627.34 481.25C669.89 481.25 707.06 478.43 734.84 473.1C770.19 466.31 775.95 458.04 776.52 457.03C775.95 456.02 770.19 447.75 734.84 440.97C707.06 435.63 669.89 432.81 627.34 432.81ZM313.28 618.75L313.28 648.44L454.69 648.44L454.69 525L313.28 525L313.28 564.06C313.28 570.53 308.03 575.78 301.56 575.78C295.09 575.78 289.84 570.53 289.84 564.06L289.84 525L101.56 525L101.56 641.41C101.56 643.43 105.61 648.44 111.72 648.44L289.84 648.44L289.84 618.75C289.84 612.28 295.09 607.03 301.56 607.03C308.03 607.03 313.28 612.28 313.28 618.75ZM776.56 752.27L776.56 706.69C765.09 712.05 752.39 714.83 745.98 716.23C739.82 717.62 733.38 713.64 732.03 707.27C730.66 700.94 734.67 694.7 740.99 693.33C772 686.56 776.32 678.94 776.56 678.44L776.56 632.85C764.3 638.59 750.43 641.48 743.53 642.92C713.87 649.08 673.69 652.34 627.34 652.34C581 652.34 540.82 649.08 511.16 642.92C504.26 641.48 490.39 638.59 478.13 632.85L478.13 678.52C478.14 678.52 482.34 687.39 519.85 694.58C547.62 699.91 584.8 702.73 627.34 702.73C649.06 702.73 669.6 701.99 688.38 700.5C694.82 699.99 700.47 704.82 700.99 711.27C701.49 717.72 696.67 723.36 690.22 723.87C670.83 725.4 649.67 726.17 627.34 726.17C581 726.17 540.82 722.91 511.16 716.75C504.26 715.31 490.39 712.42 478.13 706.67L478.13 752.34C478.14 752.34 482.34 761.21 519.85 768.41C547.62 773.75 584.8 776.56 627.34 776.56C669.89 776.56 707.06 773.75 734.84 768.41C771.44 761.39 776.32 752.78 776.56 752.27ZM492.97 253.13L111.72 253.13C93.2 253.13 78.13 238.05 78.13 219.53L78.13 96.09C78.13 77.57 93.2 62.5 111.72 62.5L179.69 62.5C186.16 62.5 191.41 67.75 191.41 74.22C191.41 80.69 186.16 85.94 179.69 85.94L111.72 85.94C106.12 85.94 101.56 90.5 101.56 96.09L101.56 219.53C101.56 225.13 106.12 229.69 111.72 229.69L492.97 229.69C498.57 229.69 503.13 225.13 503.13 219.53L503.13 96.09C503.13 90.5 498.57 85.94 492.97 85.94L234.38 85.94C227.91 85.94 222.66 80.69 222.66 74.22C222.66 67.75 227.91 62.5 234.38 62.5L492.97 62.5C511.49 62.5 526.56 77.57 526.56 96.09L526.56 219.53C526.56 238.05 511.49 253.13 492.97 253.13ZM257.81 586.72C257.81 593.19 252.56 598.44 246.09 598.44L161.72 598.44C155.25 598.44 150 593.19 150 586.72C150 580.25 155.25 575 161.72 575L246.09 575C252.56 575 257.81 580.25 257.81 586.72ZM157.81 439.84C157.81 433.38 163.06 428.13 169.53 428.13L192.19 428.13L192.19 405.47C192.19 399 197.44 393.75 203.91 393.75C210.38 393.75 215.63 399 215.63 405.47L215.63 428.13L238.28 428.13C244.75 428.13 250 433.38 250 439.84C250 446.31 244.75 451.56 238.28 451.56L215.63 451.56L215.63 474.22C215.63 480.69 210.38 485.94 203.91 485.94C197.44 485.94 192.19 480.69 192.19 474.22L192.19 451.56L169.53 451.56C163.06 451.56 157.81 446.31 157.81 439.84ZM432.59 423.82L416.58 439.84L432.59 455.87C437.17 460.44 437.17 467.86 432.59 472.44C428.02 477.01 420.6 477.01 416.02 472.44L400 456.42L383.98 472.44C379.4 477.01 371.98 477.01 367.41 472.44C362.83 467.86 362.83 460.44 367.41 455.87L383.42 439.84L367.41 423.82C362.83 419.25 362.83 411.82 367.41 407.25C371.98 402.68 379.4 402.68 383.98 407.25L400 423.27L416.02 407.25C420.6 402.68 428.02 402.68 432.59 407.25C437.17 411.82 437.17 419.25 432.59 423.82ZM365.38 621.79C360.8 617.22 360.8 609.8 365.38 605.22L418.51 552.1C423.08 547.53 430.5 547.53 435.07 552.1C439.66 556.67 439.66 564.1 435.07 568.67L381.95 621.79C379.66 624.08 376.66 625.23 373.66 625.23C370.67 625.23 367.67 624.08 365.38 621.79ZM389.06 557.03C389.06 563.5 383.81 568.75 377.34 568.75C370.88 568.75 365.63 563.5 365.63 557.03C365.63 550.56 370.88 545.31 377.34 545.31C383.81 545.31 389.06 550.56 389.06 557.03ZM435.94 616.41C435.94 622.88 430.69 628.13 424.22 628.13C417.75 628.13 412.5 622.88 412.5 616.41C412.5 609.94 417.75 604.69 424.22 604.69C430.69 604.69 435.94 609.94 435.94 616.41Z" />
			<path id="Path 2" fill-rule="evenodd" class="shp0" d="M432.03 207.81C416.95 207.81 404.69 195.55 404.69 180.47L404.69 135.16C404.69 120.08 416.95 107.81 432.03 107.81L453.91 107.81C468.99 107.81 481.25 120.08 481.25 135.16L481.25 180.47C481.25 195.55 468.99 207.81 453.91 207.81L432.03 207.81ZM432.03 184.38L453.91 184.38C456.06 184.38 457.81 182.63 457.81 180.47L457.81 135.16C457.81 133 456.06 131.25 453.91 131.25L432.03 131.25C429.87 131.25 428.13 133 428.13 135.16L428.13 180.47C428.13 182.63 429.87 184.38 432.03 184.38Z" />
		</g>
	</g>
</svg>