<svg xmlns="http://www.w3.org/2000/svg" viewBox="0 0 1536 1309" width="48" height="41">
	<style>
		tspan { white-space:pre }
		.shp0 { fill: #f94a29 } 
	</style>
	<g id="Capa 1">
		<path id="&lt;Compound Path&gt;" fill-rule="evenodd" class="shp0" d="M903 498L903 618L1196.1 618L1419 442.8C1432.2 432.9 1450.8 435 1461 447.9C1471.2 460.8 1469.1 479.7 1456.2 490.2L1225.2 672.3C1219.8 676.2 1213.2 678.3 1206.6 678L903 678L903 804L1197 804L1419.9 642.9C1433.1 633 1452 636 1461.6 649.5C1471.5 662.7 1468.5 681.6 1455 691.2L1224 858C1219.2 861.6 1212.9 864 1206.6 864L903 864L903 987L1197.6 987L1421.4 840.3C1435.2 831 1453.5 834.6 1462.8 848.4C1471.8 862.2 1467.9 881.1 1454.1 890.1L1223.1 1041.3C1218.3 1044.9 1212.6 1046.7 1206.6 1047L98.4 1047C81.9 1047 68.4 1033.5 68.4 1017C68.4 1000.5 81.9 987 98.4 987L384 987L384 864L98.4 864C81.9 864 68.4 850.5 68.4 834C68.4 817.5 81.9 804 98.4 804L384 804L384 678L98.4 678C81.9 678 68.4 664.5 68.4 648C68.4 631.5 81.9 618 98.4 618L384 618L384 498L98.4 498C86.1 497.7 75 489.9 70.5 478.2C66 466.5 69 453.3 78 444.6L309 230.7C314.4 225.3 321.9 222.3 329.4 222L622.2 222L642.3 203.1C647.7 198 655.2 195 662.7 195L1121.7 195C1134 195 1145.1 202.8 1149.6 214.2C1150.5 216.6 1151.1 222 1151.4 222L1437.6 222C1449.9 222.3 1461 230.1 1465.5 241.8C1470 253.5 1467 266.7 1458 275.4L1227 489.6C1221.6 494.7 1214.1 497.7 1206.6 498L903 498ZM1104.9 283.2L939.6 438L1194.9 438L1361.1 282L1106.1 282C1105.5 282 1105.2 283.2 1104.9 283.2ZM393.9 435.6L557.7 282L341.1 282L174.9 438L392.4 438C393 435 393.3 435.9 393.9 435.6ZM1045.5 255L674.4 255L649.5 279L444 470.7L444 987L843 987L843 457.5C843 448.8 846.3 440.7 852.6 434.7L1045.5 255Z" />
		<path id="&lt;Path&gt;" class="shp0" d="M800.1 543C800.1 526.5 786.6 513 770.1 513L534.9 513C518.4 513 504.9 526.5 504.9 543C504.9 559.5 518.4 573 534.9 573L602.4 573C630.9 573 655.2 588 666.6 615L534.9 615C518.4 615 504.9 628.5 504.9 645C504.9 661.5 518.4 675 534.9 675L666.6 675C662.7 681.9 657.9 688.5 652.5 694.2C639 707.4 621 714.3 602.1 714L534.6 714C517.8 714.3 504.3 727.8 504.6 744.6C504.6 752.7 508.2 760.5 513.9 766.2L682.2 925.5C694.2 936.9 713.1 936.6 724.5 924.6C735.9 912.6 735.6 893.7 723.6 882.3L723.3 882L609.6 774.6C641.4 773.1 671.7 759.6 694.5 737.1C711.3 719.7 723.3 698.4 729.3 675.3L769.8 675.3C786.3 675.3 799.8 661.8 799.8 645.3C799.8 628.8 786.3 615.3 769.8 615.3L729.3 615.3C726 600.3 720 586.2 711.9 573.3L769.8 573.3C786.6 573 800.1 559.5 800.1 543Z" />
	</g>
</svg>