<svg xmlns="http://www.w3.org/2000/svg" viewBox="0 0 1065 1065" width="32" height="32">
	<defs>
		<clipPath clipPathUnits="userSpaceOnUse" id="cp1">
			<path d="M0 0L1065 0L1065 1065L0 1065Z" />
		</clipPath>
	</defs>
	<style>
		tspan { white-space:pre }
		.shp0 { fill: #ffffff } 
	</style>
	<g id="Page 1" clip-path="url(#cp1)">
		<path id="Path 1" fill-rule="evenodd" class="shp0" d="M1057.53 141.87C1069.7 154.05 1069.7 173.8 1057.53 185.98L817.15 426.36L817.15 780.14C817.15 831.73 775.18 873.7 723.58 873.7L360.35 873.7L182.4 1055.62C173.66 1064.54 160.23 1067.54 148.32 1062.69C136.59 1057.9 128.91 1046.49 128.91 1033.81L128.91 873.7L95.65 873.7C44.05 873.7 2.07 831.73 2.07 780.14L2.07 343.5C2.07 291.9 44.05 249.93 95.65 249.93L640.72 249.93L881.1 9.56C893.27 -2.63 913.02 -2.63 925.2 9.56L1057.53 141.87ZM903.15 252.14L814.93 163.93L550.29 428.58L638.49 516.79L903.15 252.14ZM754.78 488.74L660.55 582.95C657.7 585.81 653.9 588.37 650.13 589.84L423.96 684.04C420.02 685.73 415.71 686.55 411.7 686.55L222.48 686.55C205.26 686.55 191.29 672.6 191.29 655.39C191.29 638.16 205.26 624.2 222.48 624.2L390.9 624.2L477.23 416.95C478.95 412.7 481.52 409.12 484.12 406.52L578.34 312.31L95.65 312.31C78.45 312.31 64.45 326.3 64.45 343.5L64.45 780.14C64.45 797.33 78.45 811.32 95.65 811.32L160.1 811.32C177.33 811.32 191.29 825.29 191.29 842.51L191.29 957.33L324.94 820.7C330.8 814.71 338.84 811.32 347.23 811.32L723.58 811.32C740.78 811.32 754.78 797.33 754.78 780.14L754.78 488.74ZM469.6 597.46L583.51 550.02L517.06 483.56L469.6 597.46ZM991.36 163.93L903.15 75.72L859.03 119.82L947.25 208.03L991.36 163.93Z" />
	</g>
</svg>