<svg xmlns="http://www.w3.org/2000/svg" viewBox="0 0 56 58" width="32" height="33">
	<defs>
		<clipPath clipPathUnits="userSpaceOnUse" id="cp1">
			<path d="M0 0L56 0L56 58L0 58Z" />
		</clipPath>
	</defs>
	<style>
		tspan { white-space:pre }
		.shp0 { fill: #ffffff } 
	</style>
	<g id="Page 1" clip-path="url(#cp1)">
		<path id="Path 1" fill-rule="evenodd" class="shp0" d="M54.44 28.79C54.44 34.42 51.71 41.61 45.59 44.98C42.05 46.93 36.04 48.38 28.19 43.15C24.47 40.67 22.18 37.93 20.25 36.06L20.23 36.07C20.19 36.01 20.14 35.96 20.09 35.91C20.04 35.86 19.98 35.81 19.93 35.76L19.94 35.75C18.07 33.82 16.27 31.84 14.54 29.8C9.98 24.45 10.58 17.26 15.24 14.31C15.45 14.18 15.62 14.01 15.84 13.91C17.15 13.36 18.65 13.32 20.04 12.99C21.81 12.58 25.28 20.75 23.06 21.46C22.24 21.72 19.65 22.1 18.97 22.62C18.36 23.08 18.64 24.21 19.25 24.92C20.83 26.79 23.17 28.86 25.01 30.68C25.06 30.73 25.11 30.79 25.16 30.84C25.21 30.89 25.27 30.94 25.32 30.99C27.14 32.83 29.21 35.17 31.08 36.75C31.79 37.36 32.91 37.64 33.38 37.03C33.89 36.35 34.29 33.76 34.54 32.94C35.25 30.72 43.42 34.19 43.01 35.96C42.68 37.35 42.64 38.85 42.09 40.16C42 40.38 41.82 40.55 41.69 40.76C41.01 41.82 40.1 42.68 39.04 43.3C40.8 43.29 42.45 42.87 43.97 42.04C48.16 39.73 51.08 34.28 51.08 28.78C51.08 15.62 40.38 4.92 27.22 4.92C14.06 4.92 3.36 15.62 3.36 28.78C3.36 41.94 14.06 52.64 27.22 52.64C28.15 52.64 28.9 53.4 28.9 54.32C28.9 55.25 28.15 56 27.22 56C12.21 56 0 43.79 0 28.78C0 13.76 12.21 1.56 27.22 1.56C42.23 1.56 54.44 13.76 54.44 28.79ZM46.98 29.06L44.21 29.06C44.21 20.01 36.83 12.63 27.77 12.63L27.77 9.86C38.37 9.86 46.98 18.48 46.98 29.06ZM42.19 29.06L39.41 29.06C39.41 22.64 34.2 17.42 27.77 17.42L27.77 14.65C35.73 14.65 42.19 21.11 42.19 29.06Z" />
	</g>
</svg>