<svg xmlns="http://www.w3.org/2000/svg" viewBox="0 0 754 800" width="48" height="51">
	<defs>
		<clipPath clipPathUnits="userSpaceOnUse" id="cp1">
			<path d="M0 0L754 0L754 800L0 800Z" />
		</clipPath>
	</defs>
	<style>
		tspan { white-space:pre }
		.shp0 { fill: #f94a29 } 
	</style>
	<g id="Page 1" clip-path="url(#cp1)">
		<path id="Path 1" class="shp0" d="M402.29 389.65C407.44 393.14 415.06 391.64 418.53 386.54L559.06 179.49C562.69 174.15 561.3 166.87 555.95 163.25C550.62 159.62 543.34 161.01 539.71 166.36L399.18 373.4C395.55 378.74 396.94 386.02 402.29 389.65Z" />
		<path id="Path 2" fill-rule="evenodd" class="shp0" d="M511.09 337.4C513.58 265.41 596.88 265.4 599.38 337.4C599.38 367.32 579.57 391.67 555.24 391.67C530.89 391.67 511.09 367.32 511.09 337.4ZM534.48 337.4C534.48 354.13 543.98 368.27 555.24 368.27C566.49 368.27 575.98 354.13 575.98 337.4C575.98 320.67 566.49 306.54 555.24 306.54C543.98 306.54 534.48 320.67 534.48 337.4ZM401.22 269.74C342.7 266.87 342.68 164.12 401.22 161.23C425.56 161.23 445.37 185.56 445.37 215.49C445.37 245.4 425.56 269.74 401.22 269.74ZM401.23 246.35C412.47 246.35 421.97 232.22 421.97 215.49C421.97 198.75 412.47 184.62 401.23 184.62C389.97 184.62 380.47 198.75 380.47 215.49C380.47 232.22 389.97 246.35 401.23 246.35Z" />
		<path id="Path 3" fill-rule="evenodd" class="shp0" d="M395.17 542.54C395.2 558.45 395.17 603.69 395.18 618.95C398.56 617.24 402.39 615.6 406.75 614.04C449.03 598.95 503.64 598.94 545.93 614.04C574.83 624.36 580.89 638.47 580.89 648.49L580.89 754.22C580.89 764.25 574.83 778.36 545.93 788.68C503.65 803.77 449.04 803.78 406.75 788.68C396.24 784.93 388.76 780.67 383.49 776.29C378.21 780.67 370.73 784.93 360.22 788.68C317.94 803.77 263.33 803.78 221.04 788.68C210.53 784.93 203.05 780.67 197.78 776.29C192.5 780.67 185.02 784.93 174.51 788.68C132.23 803.77 77.62 803.78 35.33 788.68C6.44 778.36 0.36 764.25 0.36 754.22L0.36 542.77C0.36 531.98 7.31 516.95 40.41 506.63C55.34 502.53 62 523.84 47.37 528.96C27.86 535.04 23.76 541.71 23.76 542.77C23.76 543.67 27.14 549.46 43.19 555.19C80.41 568.48 129.41 568.49 166.64 555.19C182.7 549.46 186.07 543.68 186.07 542.77C186.07 541.87 182.7 536.08 166.68 530.36C150.4 524.54 128.52 521.33 105.05 521.32C89.57 520.78 89.58 498.45 105.06 497.92C136.64 498.36 162.29 501.96 186.07 513.22L186.07 435.36C186.07 425.34 192.15 411.22 221.04 400.91C224.22 399.77 227.58 398.73 231.07 397.78C117.51 162.9 363.35 -85.06 598.67 28.35C604.47 31.19 606.88 38.19 604.04 44C601.21 49.8 594.2 52.21 588.4 49.37C370.25 -55.53 144.52 177.66 254.81 392.96C289.21 388.09 327.25 389.14 360.22 400.91C389.12 411.22 395.18 425.34 395.18 435.36L395.18 514.84C659.34 601.85 849.69 269.69 642.19 84.85C637.29 80.63 636.74 73.24 640.96 68.35C645.17 63.45 652.55 62.91 657.45 67.12C880.99 265.67 682.25 625.06 395.18 539.5C395.18 539.96 395.19 542.11 395.17 542.54ZM557.5 678.05C554.12 679.75 550.29 681.4 545.93 682.95C503.65 698.05 449.04 698.05 406.75 682.95C402.39 681.4 398.56 679.75 395.18 678.05L395.18 701.36C395.18 702.26 398.56 708.05 414.61 713.79C451.83 727.07 500.83 727.08 538.07 713.79C554.12 708.06 557.5 702.26 557.5 701.36L557.5 678.05ZM371.78 464.92C368.41 466.62 364.58 468.26 360.22 469.83C317.94 484.91 263.33 484.92 221.04 469.83C216.68 468.26 212.85 466.62 209.47 464.92L209.47 488.23C209.47 489.13 212.85 494.92 228.9 500.65C266.12 513.94 315.12 513.94 352.36 500.65C368.41 494.92 371.78 489.13 371.78 488.23L371.78 464.92ZM209.47 517.78L209.47 541.93C209.47 542.83 212.85 548.62 228.9 554.35C266.12 567.64 315.12 567.65 352.36 554.35C368.41 548.62 371.78 542.83 371.78 541.93L371.78 517.78C327.02 538.36 267.34 538.82 221.04 522.68C216.67 521.13 212.85 519.48 209.47 517.78ZM186.07 625.19C182.7 626.89 178.86 628.53 174.51 630.09C132.23 645.18 77.62 645.18 35.33 630.09C30.96 628.53 27.14 626.89 23.76 625.19L23.76 648.49C23.76 649.4 27.14 655.19 43.19 660.92C80.41 674.21 129.4 674.21 166.64 660.92C182.7 655.19 186.07 649.4 186.07 648.49L186.07 625.19ZM23.76 701.36C23.76 702.26 27.14 708.05 43.19 713.79C80.41 727.07 129.41 727.08 166.64 713.79C182.7 708.05 186.07 702.26 186.07 701.36L186.07 678.05C182.7 679.75 178.86 681.4 174.51 682.95C132.23 698.05 77.62 698.05 35.33 682.95C30.96 681.4 27.14 679.75 23.76 678.05L23.76 701.36ZM209.47 701.36C209.47 702.26 212.85 708.05 228.9 713.79C266.12 727.07 315.12 727.08 352.36 713.79C368.41 708.05 371.78 702.26 371.78 701.36L371.78 678.05C368.41 679.75 364.58 681.4 360.22 682.95C317.94 698.05 263.33 698.05 221.04 682.95C216.68 681.4 212.85 679.75 209.47 678.05L209.47 701.36ZM371.78 648.49L371.78 625.19C368.41 626.89 364.58 628.53 360.22 630.09C317.94 645.18 263.33 645.18 221.04 630.09C216.68 628.53 212.85 626.89 209.47 625.19L209.47 648.49C209.47 649.4 212.85 655.19 228.9 660.92C266.12 674.2 315.12 674.21 352.36 660.92C368.41 655.19 371.78 649.4 371.78 648.49ZM371.78 571.48C368.41 573.19 364.58 574.83 360.22 576.38C317.94 591.48 263.33 591.48 221.04 576.38C216.68 574.83 212.85 573.19 209.47 571.48L209.47 595.63C209.47 596.53 212.85 602.33 228.9 608.06C266.12 621.34 315.12 621.35 352.36 608.06C368.41 602.33 371.78 596.53 371.78 595.63L371.78 571.48ZM209.47 435.36C209.47 436.26 212.85 442.06 228.9 447.79C266.12 461.07 315.12 461.08 352.36 447.79C368.41 442.06 371.78 436.26 371.78 435.36C371.78 434.46 368.41 428.67 352.36 422.94C315.14 409.65 266.13 409.65 228.9 422.94C212.85 428.67 209.47 434.46 209.47 435.36ZM23.76 572.32L23.76 595.64C23.76 596.53 27.14 602.33 43.19 608.06C80.41 621.35 129.4 621.35 166.64 608.06C182.7 602.33 186.07 596.54 186.07 595.64L186.07 572.32C141.31 592.9 81.63 593.36 35.33 577.22C30.96 575.67 27.13 574.02 23.76 572.32ZM186.07 754.22L186.07 730.92C137.48 752.78 72.36 752.78 23.76 730.92L23.76 754.22C23.76 755.13 27.14 760.91 43.19 766.65C80.41 779.93 129.4 779.94 166.64 766.65C182.7 760.91 186.07 755.13 186.07 754.22ZM371.78 754.22L371.78 730.92C323.2 752.78 258.07 752.78 209.47 730.92L209.47 754.22C209.47 755.13 212.85 760.91 228.9 766.65C266.12 779.93 315.12 779.94 352.36 766.65C368.41 760.91 371.78 755.13 371.78 754.22ZM557.5 754.22L557.5 730.92C508.91 752.78 443.78 752.78 395.18 730.92L395.18 754.22C395.18 755.13 398.56 760.91 414.61 766.65C451.84 779.93 500.83 779.94 538.07 766.65C554.12 760.91 557.5 755.13 557.5 754.22ZM395.18 648.49C395.18 649.4 398.56 655.19 414.61 660.92C451.84 674.21 500.83 674.21 538.07 660.92C554.12 655.19 557.5 649.4 557.5 648.49C557.5 647.59 554.12 641.8 538.07 636.08C500.84 622.79 451.85 622.78 414.61 636.08C398.56 641.8 395.18 647.59 395.18 648.49Z" />
	</g>
</svg>