<svg xmlns="http://www.w3.org/2000/svg" viewBox="0 0 1536 1536" width="48" height="48">
	<style>
		tspan { white-space:pre }
		.shp0 { fill: #ffffff } 
	</style>
	<g id="Capa 1">
		<path id="&lt;Path&gt;" class="shp0" d="M966.85 533.17L967.9 533.34C969.55 533.62 971.19 533.75 972.81 533.75C987.23 533.75 999.95 523.32 1002.38 508.62C1005.07 492.28 994 476.84 977.65 474.14L976.35 473.93C959.99 471.29 944.6 482.44 941.98 498.8C939.36 515.16 950.49 530.55 966.85 533.17Z" />
		<path id="&lt;Compound Path&gt;" fill-rule="evenodd" class="shp0" d="M1505.42 1001.63C1482.16 1024.88 1451.25 1037.69 1418.36 1037.69C1400.14 1037.69 1382.54 1033.75 1366.5 1026.29C1344.43 1149.28 1274.62 1258.93 1170.02 1331.44L1170.02 1458C1170.02 1501.01 1135.03 1536 1092.02 1536L948.02 1536C905.02 1536 870.02 1501.01 870.02 1458L870.02 1415.81L594.02 1415.81L594.02 1458C594.02 1501.01 559.03 1536 516.02 1536L372.02 1536C329.02 1536 294.02 1501.01 294.02 1458L294.02 1331.44C209.55 1272.84 146.64 1188.88 114.31 1091.82L98.93 1091.82C44.39 1091.82 0.02 1047.45 0.02 992.91L0.02 890.72C0.02 836.18 44.39 791.81 98.93 791.81L114.28 791.81C138 720.59 177.94 657.52 229.29 606.35L229.29 371C229.29 354.43 242.72 341 259.29 341L270.7 341C356.69 341 428.71 401.83 446.06 482.71C473.21 475.73 501.2 471.07 529.81 469.02C546.32 467.87 560.69 480.29 561.87 496.81C563.05 513.34 550.61 527.69 534.08 528.87C360.01 541.3 211.71 662.69 165.06 830.93C161.05 845.39 146.98 854.68 132.1 852.64C130.73 852.45 129.38 852.17 128.08 851.81L98.93 851.81C77.48 851.81 60.02 869.26 60.02 890.71L60.02 992.9C60.02 1014.36 77.48 1031.81 98.93 1031.81L127.69 1031.81C129.12 1031.39 130.6 1031.08 132.11 1030.87C146.98 1028.84 161.05 1038.13 165.06 1052.59C192.2 1150.55 254.42 1234.93 340.26 1290.19C348.84 1295.71 354.02 1305.21 354.02 1315.41L354.02 1458C354.02 1467.93 362.1 1476 372.02 1476L516.02 1476C525.95 1476 534.02 1467.93 534.02 1458L534.02 1398.91C534.02 1375.14 553.36 1355.81 577.12 1355.81L886.93 1355.81C910.7 1355.81 930.03 1375.14 930.03 1398.91L930.03 1458C930.03 1467.93 938.1 1476 948.03 1476L1092.03 1476C1101.95 1476 1110.03 1467.93 1110.03 1458L1110.03 1315.41C1110.03 1305.21 1115.21 1295.71 1123.79 1290.18C1242.91 1213.5 1314.03 1083.27 1314.03 941.81C1314.03 779.57 1218.5 631.46 1070.66 564.49C1055.57 557.66 1048.88 539.88 1055.72 524.79C1062.55 509.7 1080.33 503.01 1095.42 509.84C1264.67 586.51 1374.03 756.07 1374.03 941.81C1374.03 947.61 1373.89 953.39 1373.68 959.15C1373.7 959.17 1373.72 959.19 1373.74 959.21C1385.66 971.13 1401.51 977.69 1418.37 977.69C1435.23 977.69 1451.08 971.13 1463 959.21C1480.34 941.86 1480.34 913.64 1463 896.29C1451.46 884.75 1432.68 884.75 1421.14 896.29C1409.43 908 1390.43 908 1378.72 896.29C1367 884.57 1367 865.57 1378.72 853.86C1413.65 818.93 1470.48 818.93 1505.42 853.86C1546.16 894.6 1546.16 960.89 1505.42 1001.63ZM289.29 402.44L289.29 555.65C319.96 533.81 353.27 515.6 388.55 501.51C380.44 450.68 340.16 410.44 289.29 402.44Z" />
		<path id="&lt;Path&gt;" class="shp0" d="M318.47 747.18C312.89 752.76 309.68 760.47 309.68 768.39C309.68 776.28 312.89 784.02 318.47 789.6C324.05 795.18 331.79 798.39 339.68 798.39C347.57 798.39 355.31 795.18 360.89 789.6C366.47 783.99 369.68 776.28 369.68 768.39C369.68 760.5 366.47 752.76 360.89 747.18C355.31 741.57 347.57 738.39 339.68 738.39C331.76 738.39 324.05 741.57 318.47 747.18Z" />
		<path id="&lt;Path&gt;" class="shp0" d="M942.86 669C942.86 652.43 929.43 639 912.86 639L572.18 639C555.62 639 542.18 652.43 542.18 669C542.18 685.57 555.62 699 572.18 699L912.86 699C929.43 699 942.86 685.57 942.86 669Z" />
		<path id="&lt;Compound Path&gt;" fill-rule="evenodd" class="shp0" d="M583.52 418.78C583.52 331.11 654.85 259.78 742.52 259.78C830.2 259.78 901.52 331.11 901.52 418.78C901.52 506.45 830.2 577.78 742.52 577.78C654.85 577.78 583.52 506.45 583.52 418.78ZM643.52 418.78C643.52 473.37 687.94 517.78 742.52 517.78C797.11 517.78 841.52 473.37 841.52 418.78C841.52 364.19 797.11 319.78 742.52 319.78C687.94 319.78 643.52 364.19 643.52 418.78Z" />
		<path id="&lt;Path&gt;" class="shp0" d="M742.47 189.42C759.04 189.42 772.47 175.99 772.47 159.42L772.47 30C772.47 13.43 759.04 0 742.47 0C725.9 0 712.47 13.43 712.47 30L712.47 159.42C712.47 175.99 725.91 189.42 742.47 189.42Z" />
		<path id="&lt;Path&gt;" class="shp0" d="M912.86 246.26C920.54 246.26 928.22 243.33 934.08 237.47L1013.08 158.47C1024.8 146.75 1024.8 127.75 1013.08 116.04C1001.37 104.32 982.37 104.32 970.65 116.04L891.65 195.04C879.93 206.76 879.93 225.75 891.65 237.47C897.51 243.33 905.19 246.26 912.86 246.26Z" />
		<path id="&lt;Path&gt;" class="shp0" d="M550.97 237.32C556.83 243.18 564.51 246.11 572.18 246.11C579.86 246.11 587.54 243.18 593.4 237.32C605.11 225.6 605.11 206.61 593.4 194.89L514.39 115.88C502.68 104.17 483.68 104.17 471.96 115.88C460.25 127.6 460.25 146.6 471.96 158.31L550.97 237.32Z" />
		<path id="&lt;Path&gt;" class="shp0" d="M469.15 1175.04C485.72 1175.04 499.15 1161.61 499.15 1145.04L499.15 983.18L521.34 983.18C537.91 983.18 551.34 969.75 551.34 953.18C551.34 936.61 537.91 923.18 521.34 923.18L416.95 923.18C400.39 923.18 386.95 936.61 386.95 953.18C386.95 969.75 400.39 983.18 416.95 983.18L439.15 983.18L439.15 1145.04C439.15 1161.61 452.58 1175.04 469.15 1175.04Z" />
		<path id="&lt;Compound Path&gt;" fill-rule="evenodd" class="shp0" d="M724.59 943.09L803.94 1133.52C810.31 1148.81 803.08 1166.38 787.79 1172.75C784.02 1174.32 780.11 1175.07 776.26 1175.07C764.51 1175.07 753.36 1168.12 748.56 1156.6L743.97 1145.58L649.84 1145.58L645.25 1156.6C638.88 1171.89 621.31 1179.13 606.02 1172.75C590.72 1166.38 583.49 1148.81 589.86 1133.52L669.21 943.09C673.87 931.91 684.79 924.63 696.9 924.63C709.01 924.63 719.94 931.91 724.59 943.09ZM718.97 1085.58L696.9 1032.63L674.84 1085.58L718.97 1085.58Z" />
		<path id="&lt;Path&gt;" class="shp0" d="M1006.85 936.8L969.57 994.12L932.29 936.8C923.26 922.91 904.68 918.97 890.79 928C876.9 937.03 872.96 955.62 881.99 969.51L933.78 1049.15L881.99 1128.79C872.96 1142.68 876.9 1161.27 890.79 1170.3C895.84 1173.58 901.51 1175.15 907.11 1175.15C916.93 1175.15 926.54 1170.34 932.29 1161.51L969.57 1104.18L1006.85 1161.51C1012.6 1170.35 1022.21 1175.15 1032.03 1175.15C1037.63 1175.15 1043.3 1173.58 1048.35 1170.3C1062.24 1161.27 1066.18 1142.68 1057.15 1128.79L1005.36 1049.15L1057.15 969.51C1066.18 955.62 1062.24 937.03 1048.35 928C1034.46 918.97 1015.88 922.91 1006.85 936.8Z" />
	</g>
</svg>