<svg xmlns="http://www.w3.org/2000/svg" viewBox="0 0 800 716" width="32" height="29">
	<defs>
		<clipPath clipPathUnits="userSpaceOnUse" id="cp1">
			<path d="M0 0L800 0L800 716L0 716Z" />
		</clipPath>
	</defs>
	<style>
		tspan { white-space:pre }
		.shp0 { fill: #ffffff } 
	</style>
	<g id="Page 1" clip-path="url(#cp1)">
		<path id="Path 1" class="shp0" d="M791.5 283.1L412.28 5.44C404.96 0.1 395.04 0.1 387.72 5.44L8.5 283.1C-0.76 289.89 -2.77 302.89 4.01 312.15C10.8 321.41 23.8 323.42 33.06 316.64L400 47.98L766.94 316.64C770.63 319.35 774.94 320.65 779.2 320.65C785.6 320.65 791.91 317.71 795.98 312.15C802.77 302.89 800.76 289.89 791.5 283.1ZM691.01 321.35C679.53 321.35 670.22 330.66 670.22 342.13L670.22 672.99L503.94 672.99L503.94 492.39C503.94 435.08 457.31 388.45 400 388.45C342.69 388.45 296.06 435.08 296.06 492.39L296.06 672.99L129.78 672.99L129.78 342.14C129.78 330.66 120.47 321.35 108.99 321.35C97.52 321.35 88.21 330.66 88.21 342.14L88.21 693.78C88.21 705.26 97.52 714.57 108.99 714.57L316.85 714.57C327.78 714.57 336.73 706.12 337.56 695.4C337.61 694.91 337.64 694.39 337.64 693.78L337.64 492.39C337.64 458 365.61 430.02 400 430.02C434.39 430.02 462.37 458 462.37 492.39L462.37 693.78C462.37 694.38 462.4 694.9 462.45 695.38C463.26 706.11 472.22 714.57 483.15 714.57L691.01 714.57C702.49 714.57 711.8 705.26 711.8 693.78L711.8 342.14C711.79 330.66 702.49 321.35 691.01 321.35Z" />
	</g>
</svg>