<svg xmlns="http://www.w3.org/2000/svg" viewBox="0 0 1536 1536" width="32" height="32">
	<style>
		tspan { white-space:pre }
		.shp0 { fill: #ffffff } 
	</style>
	<g id="Capa 1">
		<path id="&lt;Path&gt;" class="shp0" d="M1146.6 239.4C1123.2 240.9 1105.5 260.7 1106.7 284.1C1107.9 306.6 1126.8 324 1149 324C1149.6 324 1197.7 321.2 1293.3 315.6C1316.7 314.1 1334.4 294.3 1333.2 270.9L1324.8 129C1323.3 105.6 1303.8 87.6 1280.1 89.1C1256.7 90.6 1239 110.4 1240.2 133.8L1242.6 175.5C1120.2 84 971.7 34.2 815.7 34.2C624.9 34.2 445.5 108.6 310.8 243.3C294.3 259.8 294.3 286.5 310.8 303.3C333.6 326.1 362.4 311.7 370.8 303.3C489.6 184.5 647.7 118.8 816 118.8C949.8 118.8 1077 160.2 1183.2 237L1146.6 239.4Z" />
		<path id="&lt;Path&gt;" class="shp0" d="M652.8 1356.3C351 1275.6 159.6 987.3 189.6 686.1L209.7 716.4C217.8 728.7 243.6 743.4 268.2 728.4C288 716.1 293.1 689.4 280.2 669.9L202.2 551.1C195.9 541.8 186.3 535.2 175.5 532.8C164.4 530.7 153 532.8 143.7 538.8L25.2 616.8C5.7 629.7 0.3 655.8 13.2 675.3C26.1 694.8 52.2 700.2 71.7 687.3L106.8 664.2C65.7 1011 284.4 1345.2 630.9 1437.9C634.5 1438.8 672 1443.3 682.8 1407.9C689.7 1385.7 675.6 1362.3 652.8 1356.3Z" />
		<path id="&lt;Path&gt;" class="shp0" d="M1505.7 563.4C1499.7 540.9 1476.3 527.4 1453.8 533.4C1431.3 539.4 1417.8 562.8 1423.8 585.3C1504.5 887.1 1350.9 1197.3 1074.9 1321.8L1091.1 1289.1C1101.6 1268.1 1093.2 1242.9 1072.2 1232.4C1051.2 1221.9 1025.7 1230.3 1015.5 1251.3L951.9 1378.2C941.4 1399.2 949.8 1424.4 970.8 1434.9L1097.7 1498.5C1103.7 1501.5 1137.6 1509 1154.4 1479.6C1166.1 1459.2 1156.5 1433.4 1135.5 1422.9L1097.4 1403.7C1418.4 1266.3 1598.4 910.2 1505.7 563.4Z" />
		<path id="&lt;Path&gt;" class="shp0" d="M696.6 820.8C726.3 789.9 774.3 746.1 774.3 682.2C774.3 642.3 743.7 553.2 637.2 553.2C556.2 553.2 502.2 615.6 482.4 646.2L557.7 690.9C581.4 653.1 606.6 634.2 633 634.2C684.3 634.2 682.5 669.6 682.5 683.7C682.5 720.9 638.1 762.6 613.2 788.1L489.6 914.7L489.6 984.6L786.9 984.6L786.9 900.3L620.4 900.3L696.6 820.8Z" />
		<path id="&lt;Path&gt;" class="shp0" d="M1011 984.3L1101.3 984.3L1101.3 883.5L1149 883.5L1149 802.2L1101.3 802.2L1101.3 728.7L1011 728.7L1011 802.2L951.3 802.2L1094.1 562.8L991.8 562.8L841.5 811.8L841.5 883.5L1011 883.5L1011 984.3Z" />
		<path id="&lt;Path&gt;" class="shp0" d="M1302.6 647.4L1302.6 564.3C1302.6 537.3 1285.8 508.5 1251.6 508.5C1237.2 508.5 1224.3 514.2 1212.9 525.9L1212.9 458.7L1174.8 458.7L1174.8 647.1L1212.9 647.1L1212.9 573.3C1212.9 562.5 1215.6 540.9 1241.4 540.9C1256.7 540.9 1264.5 551.4 1264.5 572.4L1264.5 647.1L1302.6 647.1L1302.6 647.4Z" />
	</g>
</svg>