<svg xmlns="http://www.w3.org/2000/svg" viewBox="0 0 752 750" width="48" height="48">
	<defs>
		<clipPath clipPathUnits="userSpaceOnUse" id="cp1">
			<path d="M0 0L752 0L752 750L0 750Z" />
		</clipPath>
	</defs>
	<style>
		tspan { white-space:pre }
		.shp0 { fill: #f94a29 } 
	</style>
	<g id="Page 1" clip-path="url(#cp1)">
		<path id="Path 1" fill-rule="evenodd" class="shp0" d="M0 737.5L0 37.5C0 30.6 5.6 25 12.5 25L78.2 25L75.53 16.1C74.39 12.3 75.11 8.21 77.47 5.04C79.83 1.87 83.55 0 87.5 0L137.5 0C142.88 0 147.66 3.44 149.36 8.55L154.84 25L420.16 25L425.64 8.55C427.34 3.44 432.12 0 437.5 0L487.5 0C491.45 0 495.18 1.87 497.52 5.04C499.89 8.21 500.61 12.3 499.47 16.1L496.8 25L562.5 25C569.4 25 575 30.6 575 37.5L575 375L687.5 375C694.4 375 700 380.6 700 387.5L700 437.5C700 444.4 694.4 450 687.5 450L675 450L675 475L687.5 475C694.4 475 700 480.6 700 487.5L700 537.5C700 544.4 694.4 550 687.5 550L675 550L675 553.17C723.78 565.74 755.59 612.63 749.24 662.6C742.9 712.57 700.37 750.02 650 750L12.5 750C5.6 750 0 744.4 0 737.5ZM553.17 675C551.06 666.84 549.99 658.43 550 650L500 650L500 675L553.17 675ZM583.96 575C602.15 558.91 625.59 550.02 649.86 550L500 550L500 575L583.96 575ZM650 550C649.95 550 649.91 550 649.86 550L650 550ZM525 600L525 625L553.17 625C555.44 616.24 558.9 607.83 563.45 600L525 600ZM650 475L650 450L500 450L500 475L650 475ZM25 725L500 725L500 700L62.5 700C55.6 700 50 694.4 50 687.5L50 112.5C50 105.6 55.6 100 62.5 100L100.7 100L85.7 50L25 50L25 725ZM583.96 725C575.82 717.82 568.9 709.38 563.45 700L525 700L525 725L583.96 725ZM650 575C619.66 575 592.32 593.27 580.71 621.3C569.1 649.32 575.52 681.58 596.96 703.04C618.42 724.48 650.68 730.9 678.7 719.29C706.73 707.68 725 680.34 725 650C724.95 608.6 691.4 575.05 650 575ZM675 500L525 500L525 525L675 525L675 500ZM525 400L525 425L675 425L675 400L525 400ZM474.3 100L512.5 100C519.4 100 525 105.6 525 112.5L525 375L550 375L550 50L489.3 50L474.3 100ZM104.3 25L134.29 125L440.7 125L470.7 25L446.51 25L424.36 91.45C422.66 96.56 417.88 100 412.5 100L162.5 100C157.12 100 152.34 96.56 150.64 91.45L128.49 25L104.3 25ZM163.17 50L171.51 75L403.49 75L411.82 50L163.17 50ZM500 125L466.8 125L461.97 141.1C460.38 146.38 455.52 150 450 150L125 150C119.48 150 114.62 146.38 113.03 141.1L108.2 125L75 125L75 675L475 675L475 637.5C475 630.6 480.6 625 487.5 625L500 625L500 600L487.5 600C480.6 600 475 594.4 475 587.5L475 537.5C475 530.6 480.6 525 487.5 525L500 525L500 500L487.5 500C480.6 500 475 494.4 475 487.5L475 437.5C475 430.6 480.6 425 487.5 425L500 425L500 125ZM212.5 237.5L187.5 237.5L187.5 325C187.5 331.9 181.9 337.5 175 337.5C168.1 337.5 162.5 331.9 162.5 325L162.5 237.5L137.5 237.5C130.6 237.5 125 231.9 125 225C125 218.1 130.6 212.5 137.5 212.5L212.5 212.5C219.4 212.5 225 218.1 225 225C225 231.9 219.4 237.5 212.5 237.5Z" />
		<path id="Path 2" fill-rule="evenodd" class="shp0" d="M237.5 325L237.5 300C237.5 298.06 237.96 296.14 238.82 294.41L276.32 219.41C278.43 215.18 282.76 212.5 287.5 212.5C292.24 212.5 296.57 215.18 298.68 219.41L336.18 294.41C337.04 296.14 337.5 298.06 337.5 300L337.5 325C337.5 331.9 331.9 337.5 325 337.5C318.1 337.5 312.5 331.9 312.5 325L312.5 312.5L262.5 312.5L262.5 325C262.5 331.9 256.9 337.5 250 337.5C243.1 337.5 237.5 331.9 237.5 325ZM270.22 287.5L304.78 287.5L287.5 252.95L270.22 287.5ZM449.68 222.19C450.42 225.42 449.85 228.82 448.1 231.63L420.99 275L448.1 318.38C451.76 324.24 449.98 331.95 444.12 335.6C438.27 339.27 430.56 337.48 426.9 331.63L406.25 298.59L385.6 331.62C381.94 337.48 374.23 339.26 368.38 335.6C362.52 331.94 360.74 324.23 364.4 318.38L391.51 275L364.4 231.63C360.74 225.77 362.52 218.06 368.38 214.4C374.23 210.74 381.94 212.53 385.6 218.37L406.25 251.42L426.9 218.37C428.65 215.56 431.46 213.57 434.69 212.82C437.92 212.08 441.32 212.65 444.12 214.4C446.94 216.15 448.93 218.96 449.68 222.19ZM374.99 399.45C375.14 402.77 373.96 406.01 371.72 408.45L234.22 558.45C231.97 560.89 228.86 562.35 225.55 562.48C222.23 562.63 219 561.45 216.55 559.21C214.11 556.97 212.65 553.85 212.52 550.54C212.37 547.22 213.55 543.99 215.79 541.54L353.29 391.54C357.96 386.47 365.86 386.12 370.95 390.78C373.39 393.02 374.85 396.14 374.99 399.45Z" />
		<path id="Path 3" fill-rule="evenodd" class="shp0" d="M237.5 462.5C222.33 462.5 208.66 453.36 202.86 439.35C197.05 425.34 200.26 409.21 210.99 398.49C221.71 387.76 237.84 384.55 251.85 390.36C265.86 396.16 275 409.83 275 425C274.98 445.7 258.2 462.48 237.5 462.5ZM237.5 437.5C242.55 437.5 247.11 434.46 249.05 429.79C250.99 425.11 249.91 419.74 246.34 416.16C242.76 412.59 237.39 411.51 232.71 413.45C228.04 415.39 225 419.95 225 425C225.01 431.9 230.6 437.49 237.5 437.5ZM375 525C375 540.17 365.86 553.84 351.85 559.64C337.84 565.45 321.71 562.24 310.99 551.51C300.26 540.79 297.05 524.66 302.86 510.65C308.66 496.64 322.33 487.5 337.5 487.5C358.2 487.52 374.98 504.3 375 525ZM350 525C350 519.95 346.96 515.39 342.29 513.45C337.61 511.51 332.24 512.59 328.66 516.16C325.09 519.74 324.01 525.11 325.95 529.79C327.89 534.46 332.45 537.5 337.5 537.5C344.4 537.49 349.99 531.9 350 525ZM650 600C656.9 600 662.5 605.6 662.5 612.5C669.4 612.5 675 618.1 675 625C675 631.9 669.4 637.5 662.5 637.5L650.04 637.5C661.33 637.51 671.22 645.1 674.15 656.01C677.08 666.94 672.3 678.47 662.5 684.11L662.5 687.5C662.5 694.4 656.9 700 650 700C643.1 700 637.5 694.4 637.5 687.5C630.6 687.5 625 681.9 625 675C625 668.1 630.6 662.5 637.5 662.5L649.96 662.5C638.67 662.49 628.78 654.9 625.85 643.99C622.92 633.06 627.7 621.53 637.5 615.89L637.5 612.5C637.5 605.6 643.1 600 650 600ZM650 662.5L649.96 662.5C649.98 662.5 649.99 662.5 650 662.5ZM650 637.5L650.04 637.5C650.02 637.5 650.01 637.5 650 637.5Z" />
	</g>
</svg>